PathFileType	4	(X/Y/Z)	Run_500 01
DataRate	CameraRate	NumFrames	NumMarkers	Units	OrigDataRate	OrigDataStartFrame	OrigNumFrames
120	120	7	42	mm	120	119	128
Frame#	Time	LASI			RASI			LPSI			RPSI			RTH1			RTH2			RTH3			LTH1			LTH2			LTH3			RTB1			RTB2			LTB1			LTB2			LTB3			RCAL			RTOE			RMT5			LCAL			LTOE			LMT5			LACR			RACR			CLAV			C7			RUA1			RUA2			RUA3			RLEL			LUA1			LUA2			LUA3			LLEL			LMEL			RFAsuperior			RFAradius			RFAulna			LFAsuperior			LFAradius			LFAulna			RMEL			RTB3			
		X1	Y1	Z1	X2	Y2	Z2	X3	Y3	Z3	X4	Y4	Z4	X5	Y5	Z5	X6	Y6	Z6	X7	Y7	Z7	X8	Y8	Z8	X9	Y9	Z9	X10	Y10	Z10	X11	Y11	Z11	X12	Y12	Z12	X13	Y13	Z13	X14	Y14	Z14	X15	Y15	Z15	X16	Y16	Z16	X17	Y17	Z17	X18	Y18	Z18	X19	Y19	Z19	X20	Y20	Z20	X21	Y21	Z21	X22	Y22	Z22	X23	Y23	Z23	X24	Y24	Z24	X25	Y25	Z25	X26	Y26	Z26	X27	Y27	Z27	X28	Y28	Z28	X29	Y29	Z29	X30	Y30	Z30	X31	Y31	Z31	X32	Y32	Z32	X33	Y33	Z33	X34	Y34	Z34	X35	Y35	Z35	X36	Y36	Z36	X37	Y37	Z37	X38	Y38	Z38	X39	Y39	Z39	X40	Y40	Z40	X41	Y41	Z41	X42	Y42	Z42	

117	1.158333	1150.510089	1051.393244	-424.156575	1148.947175	1039.173366	-194.000426	985.665675	1086.630205	-361.995416	986.86555	1090.198455	-263.491398	1055.224027	883.256442	-144.111886	1068.009895	725.45269	-187.298283	980.010227	662.701357	-201.512788	1134.734035	889.210898	-499.715849	1244.061072	818.882606	-482.109175	1229.512363	680.90373	-459.215083	834.708629	506.713149	-257.450054	774.118075	566.636841	-204.395163	1395.145044	507.431773	-405.797806	1386.559551	400.807465	-448.781753	1446.870322	320.252075	-384.578371	545.272465	651.547292	-279.518104	460.415528	459.161574	-290.618589	429.432494	488.714987	-192.306531	1369.571911	183.662906	-358.454679	1572.845485	191.043862	-318.931869	1571.661462	121.817364	-402.914832	1102.717636	1541.446348	-500.551126	1190.776292	1526.936446	-155.125733	1214.74648	1480.343254	-324.576657	1102.362343	1566.896914	-326.75604	1169.904555	1451.404754	-100.538343	1165.335271	1362.562694	-105.7429	1080.827259	1376.523947	-73.56804	1051.826169	1267.107992	-35.438004	1033.082406	1521.112451	-537.0781490000001	975.84441	1494.979528	-479.152607	960.638881	1445.870825	-550.012142	838.340569	1408.121741	-543.752689	842.751274	1401.159372	-472.269754	1144.151683	1235.742837	-55.799327	1277.106888	1153.980014	-145.61584	1243.51592	1097.183821	-125.979768	890.959536	1352.724191	-572.7161149999999	1027.161787	1205.783389	-560.537995	970.967294	1170.904671	-572.109761	1016.870364	1263.350255	-99.000105	653.313302	527.222027	-254.661339	
118	1.166667	1149.755584	1048.274491	-424.494297	1149.472872	1036.530138	-193.313104	984.607199	1083.738073	-360.134509	986.4999319999999	1085.940696	-261.485395	1058.34846	880.580494	-143.319132	1075.615607	721.629095	-184.438062	990.253891	656.634645	-200.546294	1131.717799	882.99526	-498.533829	1237.104621	810.341794	-481.436766	1220.42791	674.81997	-456.437438	847.54755	507.523664	-255.230238	790.128812	572.178225	-203.921408	1384.707983	499.084257	-406.932725	1373.695308	390.993277	-446.267406	1433.467043	310.260023	-382.096551	567.237633	669.991609	-284.895889	472.182057	481.973035	-286.609919	443.346797	517.708161	-189.738516	1353.903308	175.306989	-353.628222	1558.003444	180.930035	-317.405611	1553.293096	110.566969	-400.428459	1104.45913	1535.097585	-503.023212	1189.900937	1523.045705	-155.735598	1214.878835	1475.675642	-325.0144	1102.802119	1562.881545	-328.959098	1167.672281	1448.122129	-100.96113	1160.890727	1358.722099	-106.46497	1077.425334	1374.886742	-74.531783	1045.323905	1266.230173	-36.586825	1035.03886	1512.998568	-540.732998	976.542179	1486.750122	-483.8843	963.9229340000001	1436.72379	-554.572185	842.497345	1396.157577	-550.327934	845.5074509999999	1389.950114	-478.846307	1135.800223	1230.636768	-54.965699	1266.068573	1137.459204	-139.01722	1227.539582	1083.518728	-120.347206	896.6607320000001	1341.613487	-578.174851	1036.569376	1198.82785	-562.185704	981.600611	1162.094169	-574.596102	1011.69378	1262.802492	-100.509097	667.564938	539.852097	-254.070548	
119	1.175	1148.905384	1044.517142	-424.996698	1149.547971	1033.133363	-192.474967	983.41704	1080.571213	-358.66252	985.980906	1081.266421	-259.958624	1061.238122	876.986545	-142.604327	1083.856504	717.347877	-181.492097	1001.408341	649.749502	-199.238809	1127.457875	876.982692	-497.299646	1231.625836	804.842758	-481.127816	1213.631368	669.895217	-454.730467	861.985087	507.547508	-252.832548	807.959333	576.721404	-203.137466	1373.054159	488.995667	-405.630299	1359.554995	380.81956	-443.645999	1417.385413	298.773787	-379.280098	590.529999	686.023971	-289.453941	487.341811	502.318276	-283.372538	461.075042	542.906164	-187.643431	1334.155555	166.422501	-349.851799	1539.041633	166.427433	-315.132444	1531.10859	95.142475	-397.082475	1106.365421	1527.8199	-505.484735	1188.554392	1518.578544	-156.175952	1215.09075	1470.402312	-325.262583	1103.256076	1558.022268	-331.188303	1164.774264	1444.263817	-101.182097	1155.94557	1354.429606	-107.058235	1073.568467	1372.368864	-75.35564599999999	1038.473749	1264.805992	-37.867426	1037.265626	1503.40438	-544.486456	976.886118	1477.27801	-489.428729	967.710255	1425.687975	-559.60122	847.3475	1382.543642	-557.521871	848.918527	1377.029724	-486.164393	1126.953487	1225.122519	-54.201925	1253.512578	1120.449618	-131.729684	1210.129231	1069.765784	-114.63019	903.11883	1329.041408	-584.296709	1046.782869	1190.686887	-564.080748	993.224161	1151.97403	-577.020399	1006.186801	1261.691718	-102.137026	683.953514	550.814574	-253.489409	
120	1.183333	1148.023714	1040.100416	-425.532974	1149.304566	1029.037077	-191.878078	982.341219	1076.76089	-357.576818	985.371612	1076.202499	-258.95253	1064.013339	872.253739	-142.039789	1092.585484	712.770301	-178.384961	1013.297176	642.311153	-197.476226	1122.241829	871.822289	-496.132333	1227.538195	801.566903	-481.673435	1208.438741	665.323026	-453.810038	877.9898459999999	506.717553	-250.324014	827.452588	580.141795	-202.145557	1360.451934	477.568295	-401.931003	1344.341475	370.379286	-441.281848	1399.120559	286.089307	-376.750376	615.027172	699.638853	-292.665724	505.277725	519.980458	-281.178568	482.012472	563.709962	-185.970256	1310.880858	157.400741	-347.910786	1515.705236	147.607048	-311.857591	1505.364185	76.12464	-393.260111	1108.493972	1519.752806	-507.904948	1186.79434	1513.548756	-156.521823	1215.338635	1464.519139	-325.38672	1103.716308	1552.458754	-333.351872	1161.348063	1439.805179	-101.323488	1150.679246	1349.785742	-107.551455	1069.195403	1369.022934	-76.146923	1031.357947	1262.946551	-39.095912	1039.912292	1492.496908	-548.326019	977.188273	1466.655905	-495.811265	972.2014370000001	1412.90688	-564.9781	853.0704909999999	1367.393235	-565.346672	853.113032	1362.507032	-494.068668	1117.764082	1219.05293	-53.462556	1239.439913	1103.094811	-123.981185	1191.406765	1056.199844	-108.648383	910.538184	1315.101276	-590.7886099999999	1057.771562	1181.373386	-565.926134	1005.790669	1140.642574	-579.195173	1000.456421	1260.108231	-103.706534	702.376155	559.894898	-252.885495	
121	1.191667	1147.2209	1034.974258	-426.000189	1148.94492	1024.351186	-191.818025	981.602879	1072.064713	-356.80513	984.769171	1070.77256	-258.327457	1066.723178	866.4557610000001	-141.682246	1101.735614	707.9286530000001	-175.107548	1025.841373	634.596859	-195.154095	1116.869009	867.4750340000001	-494.552462	1224.328551	799.143917	-482.936102	1203.938118	660.738972	-453.263006	895.5756730000001	504.989799	-247.786007	848.396676	582.12161	-200.928303	1347.44758	465.462175	-397.298412	1328.117172	359.429798	-439.278151	1378.545938	272.282604	-374.759716	640.636519	710.769308	-294.2582	525.573626	534.673316	-280.04003	505.317796	579.804969	-184.701945	1283.795054	148.352455	-347.833978	1487.145315	126.403998	-307.661677	1475.717259	56.580896	-390.118376	1110.858377	1511.037185	-510.23598	1184.686714	1507.946955	-156.851479	1215.555379	1458.034469	-325.428615	1104.155484	1546.266871	-335.402377	1157.552168	1434.7522	-101.496794	1145.251769	1344.848257	-107.977008	1064.33017	1365.018268	-77.03949	1024.028245	1260.759758	-40.148486	1043.073704	1480.478935	-552.186744	977.7937470000001	1454.933116	-502.94579	977.605459	1398.583257	-570.5550500000001	859.8381010000001	1350.84936	-573.727927	858.166168	1346.532676	-502.38124	1108.23203	1212.281895	-52.601557	1223.776656	1085.53236	-116.059852	1171.498069	1042.9928	-102.275768	919.078183	1299.849495	-597.33413	1069.515159	1170.96926	-567.331173	1019.256055	1128.243887	-581.059216	994.523536	1258.19201	-105.108248	722.674318	566.897476	-252.083494	
122	1.2	1146.555525	1029.132647	-426.356338	1148.542878	1019.146739	-192.281031	981.1750929999999	1066.447365	-356.267432	984.1750019999999	1064.92547	-257.908729	1069.389207	859.867396	-141.548087	1111.420127	702.758496	-171.738882	1039.145529	626.776921	-192.219935	1112.224897	863.34328	-492.124436	1221.411525	796.300688	-483.928656	1199.409655	655.927006	-452.846286	914.774071	502.355087	-245.330117	870.511945	582.279673	-199.36591	1334.426037	452.917836	-393.542795	1310.502975	347.657905	-437.299548	1354.685157	257.448719	-372.860466	667.16182	719.300736	-294.253733	547.938117	546.078584	-279.746926	530.1607330000001	591.153013	-183.802796	1251.841891	138.883189	-348.690152	1452.747358	106.294033	-302.963435	1441.930771	40.744737	-388.736263	1113.436395	1501.811803	-512.437497	1182.263422	1501.777368	-157.218858	1215.695313	1450.981562	-325.387149	1104.541382	1539.488754	-337.374519	1153.509459	1429.163526	-101.774725	1139.742111	1339.637647	-108.371275	1059.083091	1360.579621	-78.145291	1016.523095	1258.246368	-41.064501	1046.740203	1467.536366	-555.9984470000001	979.0098379999999	1442.0583	-510.610328	984.097812	1382.902464	-576.186867	867.797434	1333.084344	-582.485544	864.133243	1329.294905	-510.929218	1098.196592	1204.735473	-51.332646	1206.437783	1067.963396	-108.197996	1150.501883	1030.183025	-95.60576399999999	928.883455	1283.356938	-603.674345	1082.018166	1159.687217	-567.950246	1033.644329	1114.987173	-582.641344	988.353117	1256.02357	-106.408705	744.6038119999999	571.678303	-250.920573	
123	1.208333	1145.929237	1022.671083	-426.551878	1147.94484	1013.418631	-192.980276	980.7194490000001	1060.033381	-355.949645	983.399287	1058.527217	-257.65828	1072.066923	852.757791	-141.601557	1121.879853	697.235787	-168.434452	1053.489859	618.864548	-188.750691	1108.752462	858.633482	-489.099712	1218.496179	792.208454	-483.296805	1194.670148	650.517684	-452.534208	935.615554	498.856012	-243.038757	893.507418	580.356617	-197.314193	1321.171083	439.648192	-391.483841	1290.694633	335.164147	-434.660288	1326.344796	242.180634	-369.985543	694.2457429999999	725.095165	-292.913563	572.055344	553.902017	-279.991379	555.914494	597.891992	-183.167975	1214.161018	128.563314	-348.949893	1413.065263	90.71108599999999	-298.407454	1404.32926	31.629155	-389.284295	1116.184057	1492.225781	-514.52908	1179.49574	1495.097864	-157.631965	1215.762002	1443.427579	-325.225967	1104.846423	1532.202178	-339.351755	1149.266135	1423.1368	-102.171811	1134.125175	1334.14418	-108.75935	1053.601459	1355.88875	-79.494619	1008.906119	1255.286249	-41.981245	1050.837162	1453.775688	-559.760905	981.054528	1427.896366	-518.525877	991.768871	1366.030239	-581.74464	877.059854	1314.281973	-591.388339	871.005286	1311.024434	-519.550582	1087.439049	1196.449785	-49.401453	1187.44356	1050.67739	-100.501185	1128.491643	1017.736606	-88.922397	940.136301	1265.815473	-609.640113	1095.336551	1147.89238	-567.628344	1049.089061	1101.182539	-583.946883	981.9567939999999	1253.534168	-107.764913	767.874806	574.154578	-249.379593	
